<?xml version="1.0" encoding="UTF-8" standalone="no"?>
<svg
   xmlns:dc="http://purl.org/dc/elements/1.1/"
   xmlns:cc="http://creativecommons.org/ns#"
   xmlns:rdf="http://www.w3.org/1999/02/22-rdf-syntax-ns#"
   xmlns:svg="http://www.w3.org/2000/svg"
   xmlns="http://www.w3.org/2000/svg"
   viewBox="0 0 841.5625 312.25"
   height="312.25"
   width="841.5625"
   xml:space="preserve"
   version="1.1"
   id="svg2"><metadata
     id="metadata8"><rdf:RDF><cc:Work
         rdf:about=""><dc:format>image/svg+xml</dc:format><dc:type
           rdf:resource="http://purl.org/dc/dcmitype/StillImage" /></cc:Work></rdf:RDF></metadata><defs
     id="defs6" /><g
     transform="matrix(1.25,0,0,-1.25,0,312.25)"
     id="g10"><g
       transform="scale(0.1,0.1)"
       id="g12"><path
         id="path14"
         style="fill:#84d16b;fill-opacity:1;fill-rule:nonzero;stroke:none"
         d="M 5223.81,2185 4725.14,25 l -828,0 423.59,1834.8 c 3.01,13 3.59,25.5 1.99,37.2 -5.52,41.9 -38.77,72 -85.68,72 l -790.1,0 c -46.9,0 -94.14,-30.1 -119.02,-72 -7,-11.7 -12.18,-24.2 -15.19,-37.2 L 2955.63,313 C 2919.06,154.602 2759.54,25 2601.14,25 L 513.137,25 C 354.738,25 255.059,154.602 291.629,313 l 498.672,2160 827.999,0 -423.59,-1834.801 c -3.01,-13 -3.59,-25.5 -1.99,-37.199 5.52,-41.898 38.77,-72 85.67,-72 l 790.1,0 c 46.9,0 94.15,30.102 119.03,72 7,11.699 12.18,24.199 15.19,37.199 L 2559.81,2185 c 36.57,158.4 196.09,288 354.49,288 l 2088,0 c 158.4,0 258.08,-129.6 221.51,-288" /><path
         id="path16"
         style="fill:none;stroke:#84d16b;stroke-width:50;stroke-linecap:butt;stroke-linejoin:miter;stroke-miterlimit:10;stroke-dasharray:none;stroke-opacity:1"
         d="M 5223.81,2185 4725.14,25 l -828,0 423.59,1834.8 c 3.01,13 3.59,25.5 1.99,37.2 -5.52,41.9 -38.77,72 -85.68,72 l -790.1,0 c -46.9,0 -94.14,-30.1 -119.02,-72 -7,-11.7 -12.18,-24.2 -15.19,-37.2 L 2955.63,313 C 2919.06,154.602 2759.54,25 2601.14,25 L 513.137,25 C 354.738,25 255.059,154.602 291.629,313 l 498.672,2160 827.999,0 -423.59,-1834.801 c -3.01,-13 -3.59,-25.5 -1.99,-37.199 5.52,-41.898 38.77,-72 85.67,-72 l 790.1,0 c 46.9,0 94.15,30.102 119.03,72 7,11.699 12.18,24.199 15.19,37.199 L 2559.81,2185 c 36.57,158.4 196.09,288 354.49,288 l 2088,0 c 158.4,0 258.08,-129.6 221.51,-288 z" /><g
         transform="scale(10,10)"
         id="g18"><text
           id="text20"
           style="font-variant:normal;font-weight:bold;font-size:90.12922668px;font-family:Perpetua;-inkscape-font-specification:Perpetua-Bold;writing-mode:lr-tb;fill:#1c6434;fill-opacity:1;fill-rule:nonzero;stroke:none"
           transform="matrix(0.67222308,0,-0.23086815,-1,7.73164,98.277)"><tspan
             id="tspan22"
             y="0"
             x="0 60.116192 95.807365 128.72411 179.46533 199.75281 232.67032 292.78598 348.23618 394.18051 435.45969 486.20093 567.83612 613.78046 673.89606 724.63727">NJIT INVESTMENTS</tspan></text>
</g></g></g></svg>